<svg xmlns="http://www.w3.org/2000/svg" id="Layer_1" x="0" y="0" enable-background="new 0 0 87 87" version="1.1" viewBox="0 0 87 87" xml:space="preserve">
    <style>
        .st0{fill:none}.st1{fill:#787878}
    </style>
    <path d="M0 0h86.8v87H0V0z" class="st0"/>
    <path d="M1.1 1.5H86.1V86.7H1.1z" class="st0"/>
    <path d="M64.1 57.3c-.4 0-.4-.4-.7-.4-1.1 0-1.8.4-2.5.7-2.9 1.5-5.8 3.3-8.7 4.7-.7.4-1.1.4-1.4 0h-.4c-2.2-1.4-4-2.9-5.8-4.3-3.3-2.9-6.5-5.8-9.4-8.7-2.5-2.9-5.4-6.2-8-9.4-1.4-1.4-2.5-3.3-3.6-5.1v-.7c1.4-2.9 3.3-5.8 4.7-8.7.4-.4.7-1.1 1.1-1.8 0-.7 0-1.1-.4-1.8-1.1-1.5-1.8-2.9-2.9-4.3-2.9-4-5.4-8-8-12-.4-.4-.7-.4-1.1-.4-1.1 0-1.8 0-2.2.7C11.6 8 8.7 10.5 6.2 13c-.7 1.1-1.4 1.8-1.8 2.9 0 .4-.4.8-.4 1.1 0 1.8.4 3.3.7 5.1 1.1 3.3 2.9 6.9 4.7 10.1 2.5 4.7 5.8 8.7 9 13.1 2.9 3.6 6.2 7.3 9.4 10.5 4 4 8.3 8 12.7 11.6 4.3 3.3 8.3 6.5 13 9.4 2.9 1.8 6.2 3.3 9 4.3 2.2.7 4.3 1.1 6.5 1.1.7 0 .7 0 1.1-.4 1.1-.4 1.4-1.1 2.2-1.4 2.9-2.5 5.4-5.8 8-8.7.4-.7.7-1.1.7-1.8 0-.4 0-.7-.4-1.1-5.3-4.3-10.7-7.9-16.5-11.5z" class="st0"/>
    <path d="M82.9 65.3c-2.9-2.2-5.8-4-9-5.8-2.5-1.8-5.4-3.6-8-5.1-1.1-.7-2.5-1.1-4-.7-1.1.4-2.2.7-3.3 1.1-2.5 1.4-4.7 2.5-6.9 4h-.4c-.7-.4-1.1-.7-1.8-1.1-3.3-2.5-6.2-5.1-9-8-2.9-2.9-5.8-5.8-8.3-8.7-1.4-1.8-2.9-3.6-4.3-5.4v-.7c1.1-2.5 2.2-4.7 3.3-6.5.7-1.1 1.1-2.2 1.4-3.6.7-1.5.7-2.9-.4-4.4C28.6 14.5 25 8.7 21 2.9c-.7-1.4-2.2-1.8-3.6-2.2-1.8 0-3.3.4-4.7 1.4C10.2 4 8 5.8 5.8 8 4 9.8 2.6 11.2 1.5 13 .8 14.1.1 15.5.4 17c0 1.8.4 3.6.7 5.1 1.1 4 2.5 7.6 4.3 10.9 2.5 5.1 5.8 9.4 9.4 13.8 2.9 3.6 6.2 7.3 9 10.5 4.7 5.1 9.8 9.8 14.8 13.8 4 3.3 8.3 6.5 12.7 9.1 3.3 1.8 6.5 3.3 9.8 4.7 2.5.7 5.1 1.4 8 1.4 1.1 0 2.2-.4 3.3-1.1 1.1-.7 2.2-1.8 3.3-2.9 2.5-2.5 5.1-5.1 7.2-8 1.1-1.4 1.8-2.9 1.8-4.7.7-1.8 0-3.3-1.8-4.3zm-2.2 6.1c-2.5 3.3-5.1 6.2-8 8.7-.7.7-1.4 1.1-2.2 1.4s-.7.4-1.1.4c-2.2 0-4.3-.7-6.5-1.1-3.3-1.1-6.2-2.5-9-4.3-4.7-2.9-9-5.8-13-9.4-4.3-3.6-8.7-7.6-12.7-11.6-3.3-3.3-6.5-6.9-9.4-10.5-3.3-4-6.5-8.3-9-13-2.2-2.9-4-6.5-4.7-10.1-.7-1.5-.7-3.3-1.1-5.1 0-.4 0-.7.4-1.1.4-1.1 1.1-1.8 1.8-2.5 2.5-2.9 5.4-5.4 8.7-7.6.7-.4 1.4-.7 2.2-.7.4 0 .7 0 1.1.4 2.5 4 5.4 8 8 12.3 1.1 1.4 1.8 2.9 2.9 4.3.4.7.4 1.1.4 1.8s-.5 1.3-1.3 2c-1.4 2.9-3.3 5.8-4.7 8.7v.7c1.1 1.8 2.2 3.3 3.6 5.1 2.5 3.3 5.4 6.5 8.3 9.4 2.9 2.9 6.2 6.2 9.4 8.7 1.8 1.4 3.6 2.9 5.8 4.4h.4c.4.4 1.1.4 1.4 0 2.9-1.5 5.8-3.3 8.7-4.7.7-.4 1.8-.7 2.5-.7.4 0 .4 0 .7.4 5.4 3.6 11.2 7.2 16.6 10.9.4.4.4.7.4 1.1.1.6-.2 1-.6 1.7zM86.9 21.8c-1.4-1.1-2.5-2.5-4-3.6-2.5-2.2-5.1-4.7-7.6-6.9-.7-.7-1.8-1.4-2.5-2.5-.8-.8-1.5-.8-2.2-.5-1.1.7-1.4 2.2-.4 3.3 2.2 2.2 4.7 4.4 6.9 6.5.7.7 1.4 1.1 2.2 1.8H50.7c-1.1 0-1.8 1.1-1.8 1.8 0 1.1 1.1 1.8 1.8 1.8h28.6c-1.8 1.8-4 3.6-5.8 5.4-1.1 1.1-2.2 1.8-3.3 2.9-.4.4-.7 1.1-.7 1.4 0 .7.4 1.5 1.1 1.8.7.4 1.4 0 2.2-.4 1.8-1.8 3.6-3.3 5.4-5.1 2.5-2.2 4.7-4.3 7.2-6.5.7.2 1.1-.5 1.5-1.2.3.3 0 0 0 0z" class="st1"/>
</svg>
