<svg xmlns="http://www.w3.org/2000/svg" id="Layer_1" x="0" y="0" enable-background="new 0 0 87 87" version="1.1" viewBox="0 0 87 87" xml:space="preserve">
    <style>
        .st0{fill:none}.st2{fill:#787878}
    </style>
    <path d="M0 0h87v87H0V0z" class="st0"/>
    <path d="M1.1 1.5H86.3V86.7H1.1z" class="st0"/>
    <path d="M59.4 39.2L59.4 39.9 59.4 39.5z"/>
    <path d="M50.4 13c-1.4-1.4-3.3-2.2-5.1-2.2s-3.6.7-5.1 2.2L14.9 38.4c-2.9 2.9-2.9 7.6 0 10.1L40.2 74c1.4 1.4 3.3 2.2 5.1 2.2s3.6-.7 5.1-2.2l25.4-25.4c2.9-2.9 2.9-7.6 0-10.2L50.4 13zM62 42.1l-8 8c-.4.4-.7.4-1.4.4s-1.1 0-1.5-.4c-.7-.7-.7-1.8 0-2.5l6.2-6.2h-16c-1.8 0-3.3 1.5-3.3 3.3v16.7h-3.6V44.6c0-4 3.3-6.9 6.9-6.9h16l-6.2-6.2c-.4-.7-.4-1.8.4-2.5.4-.4.7-.4 1.5-.4.7 0 1.1 0 1.4.4l8 8 2.5 2.5-2.9 2.6zM59.4 39.9L59.4 39.2 59.4 39.5z" class="st0"/>
    <path d="M83 34.4L52.9 4.3C50.4 1.8 47.1.7 43.8.7s-6.5 1.4-9.1 3.6L4.4 34.4C1.9 36.9.8 40.2.8 43.5s1.5 6.5 3.6 9.1l30.1 30.1c2.5 2.5 5.8 3.6 9.1 3.6s6.5-1.4 9.1-3.6l30.1-30.1c2.5-2.5 3.6-5.8 3.6-9.1.2-3.6-.8-6.5-3.4-9.1zm-2.9 15.3L49.7 79.8c-1.8 1.8-4 2.5-6.2 2.5s-4.3-.7-6.2-2.5l-30-30.1C4 46.4 4 41 7.3 37.3l30.4-30c1.8-1.8 4-2.5 6.2-2.5s4.3.7 6.2 2.5l30.1 30.1c3.2 3.6 3.2 8.6-.1 12.3z" class="st2"/>
    <path d="M54 29c-.4-.4-.7-.4-1.4-.4s-1.1 0-1.4.4c-.7.7-.7 1.8 0 2.5l6.2 6.2h-16c-4 0-6.9 3.3-6.9 6.9v16.7h3.6V44.6c0-1.8 1.4-3.3 3.3-3.3h16l-6.2 6.2c-.7.7-.7 1.8 0 2.5.4.4.7.4 1.4.4s1.1 0 1.5-.4l8-8 2.5-2.5L62 37l-8-8zm5.4 10.9v-.7.7z" class="st2"/>
    <path d="M59.4 39.2L59.4 39.9 59.4 39.5zM59.4 39.2L59.4 39.9 59.4 39.5z"/>
</svg>
