<svg xmlns="http://www.w3.org/2000/svg" id="Layer_1" x="0" y="0" enable-background="new 0 0 62 86" version="1.1" viewBox="0 0 62 86" xml:space="preserve">
    <style>
        .st0{fill:#6d6d6d}
    </style>
    <path d="M54.17 26.16H39.44v3.94h14.73c2.06 0 3.43 1.79 3.43 3.58v44.43c0 2.15-1.71 3.58-3.43 3.58H7.59c-2.06 0-3.43-1.79-3.43-3.58V33.68c0-2.15 1.71-3.58 3.43-3.58h14.73v-3.94H7.59c-4.11 0-7.54 3.22-7.54 7.52v44.43c0 4.3 3.43 7.88 7.54 7.88h46.93c4.11 0 7.54-3.58 7.54-7.53V33.68c-.35-4.3-3.78-7.52-7.89-7.52z" class="st0"/>
    <path d="M19.57 17.2l9.25-9.68v46.22c0 1.08 1.03 2.15 2.06 2.15s2.06-1.08 2.06-2.15V7.52l9.59 9.68c.69.72 2.06.72 2.74 0s.69-2.15 0-2.87L30.88 0l-2.74 2.87-11.3 11.82c-.69.72-.69 2.15 0 2.87.68.71 2.05.71 2.73-.36z" class="st0"/>
</svg>
